<svg width="27" height="28" viewBox="0 0 27 28" xmlns="http://www.w3.org/2000/svg">
  <path
    d="M22.8672 5.04688C20.1484 2.75 15.9766 3.07812 13.3984 5.75C10.7734 3.07812 6.60156 2.75 3.88281 5.04688C0.367188 8 0.882812 12.8281 3.41406 15.4062L11.6172 23.7969C12.0859 24.2656 12.6953 24.5469 13.3984 24.5469C14.0547 24.5469 14.6641 24.2656 15.1328 23.7969L23.3828 15.4062C25.8672 12.8281 26.3828 8 22.8672 5.04688ZM21.7422 13.8125L13.5391 22.2031C13.4453 22.2969 13.3516 22.2969 13.2109 22.2031L5.00781 13.8125C3.27344 12.0781 2.94531 8.79688 5.33594 6.78125C7.16406 5.23438 9.97656 5.46875 11.7578 7.25L13.3984 8.9375L15.0391 7.25C16.7734 5.46875 19.5859 5.23438 21.4141 6.73438C23.8047 8.79688 23.4766 12.0781 21.7422 13.8125Z" />
</svg>
