<svg width="16" height="16" viewBox="0 0 16 16" fill="none" xmlns="http://www.w3.org/2000/svg">
<path d="M1.399 2.66481C2.02369 8.96553 7.0345 13.9763 13.3352 14.601C14.068 14.6737 14.6667 14.0697 14.6667 13.3333V10.961C14.6667 10.3871 14.2995 9.8776 13.755 9.69611L11.4484 8.92726C10.9693 8.76756 10.4411 8.89225 10.084 9.24936L9.7148 9.61857C9.49236 9.84101 9.14372 9.87889 8.88407 9.70128C7.68756 8.88281 7.01642 8.21311 6.28496 7.11179C6.11376 6.85403 6.15468 6.51202 6.37349 6.29321L6.75067 5.91603C7.10778 5.55892 7.23247 5.0307 7.07277 4.55159L6.30392 2.24504C6.12244 1.70058 5.61292 1.33334 5.03901 1.33334H2.66669C1.93031 1.33334 1.32635 1.93202 1.399 2.66481Z" stroke="white" stroke-linecap="round"/>
</svg>
