<svg width="16" height="16" viewBox="0 0 16 16" xmlns="http://www.w3.org/2000/svg">
  <g clip-path="url(#clip0_1_466)">
    <path d="M4.72684 1.21549L3.706 0L0.055542 3.06256L1.07642 4.27806L4.72684 1.21549Z" />
    <path d="M15.9446 3.06653L12.2942 0.00396729L11.2733 1.21946L14.9238 4.28203L15.9446 3.06653Z" />
    <path
      d="M7.99644 1.70007C4.04411 1.70007 0.850464 4.90165 0.850464 8.85003C0.850464 12.7984 4.04411 16 7.99644 16C11.9488 16 15.1504 12.7984 15.1504 8.85003C15.1504 4.90165 11.9488 1.70007 7.99644 1.70007ZM8.00042 14.4111C4.92992 14.4111 2.43936 11.9206 2.43936 8.85007C2.43936 5.77957 4.92989 3.28897 8.00042 3.28897C11.071 3.28897 13.5615 5.77954 13.5615 8.85003C13.5615 11.9205 11.0749 14.4111 8.00042 14.4111Z" />
    <path d="M8.39759 4.87787H7.20593V9.64451L10.9756 11.9126L11.5754 10.9315L8.39759 9.04868V4.87787Z" />
  </g>
  <defs>
    <clipPath id="clip0_1_466">
      <rect width="16" height="16" />
    </clipPath>
  </defs>
</svg>
